<svg width="161" height="30" viewBox="0 0 161 30" fill="none" xmlns="http://www.w3.org/2000/svg">
<path d="M10.0759 11.8975C14.0038 10.019 17.0778 6.83112 18.8425 2.8463C17.704 1.65085 16.2239 0.796964 14.63 0.28463L13.7761 0C13.7192 0.113852 13.6622 0.284637 13.6622 0.398489C12.296 4.26946 9.50665 7.40038 5.74953 9.16509C3.13093 10.4175 1.19545 12.6945 0.28463 15.4269L0 16.2808C0.113852 16.3378 0.284633 16.3947 0.398485 16.3947C1.48008 16.7932 2.56167 17.3055 3.58634 17.9317C5.00949 15.37 7.28653 13.2068 10.0759 11.8975Z" fill="black"/>
<path d="M26.5845 12.1252C24.4782 15.3131 21.575 17.8748 17.9887 19.5826C15.0854 20.9488 12.8653 23.5105 11.8407 26.5845L11.556 27.5522C12.6376 28.5199 13.9469 29.26 15.3701 29.7154L16.224 30C16.2809 29.8862 16.3378 29.7154 16.3378 29.6015C17.704 25.7306 20.4934 22.5996 24.2505 20.8349C26.8691 19.5826 28.8615 17.3055 29.7154 14.5731L30.0001 13.7192C28.8046 13.3776 27.6661 12.8084 26.5845 12.1252Z" fill="black"/>
<path d="M9.27892 24.5921C10.7021 21.1765 13.3207 18.3871 16.6793 16.7932C19.7533 15.3131 22.315 13.0361 24.0797 10.2467C22.7704 8.99434 21.6888 7.57118 20.8918 5.8634C18.7856 9.73437 15.4839 12.8653 11.4421 14.8008C9.10814 15.8824 7.22958 17.761 6.09106 20.038C7.34344 21.2334 8.36811 22.7135 9.16507 24.3644C9.16507 24.3644 9.22199 24.4782 9.27892 24.5921Z" fill="black"/>
<path d="M45.9176 23.5V6.04545H56.7415V8.3125H48.5511V13.6307H55.9659V15.8892H48.5511V23.5H45.9176ZM58.5756 23.5V10.4091H61.1239V23.5H58.5756ZM59.8625 8.3892C59.4193 8.3892 59.0386 8.24148 58.7205 7.94602C58.408 7.64489 58.2517 7.28693 58.2517 6.87216C58.2517 6.4517 58.408 6.09375 58.7205 5.79829C59.0386 5.49716 59.4193 5.34659 59.8625 5.34659C60.3057 5.34659 60.6835 5.49716 60.996 5.79829C61.3142 6.09375 61.4733 6.4517 61.4733 6.87216C61.4733 7.28693 61.3142 7.64489 60.996 7.94602C60.6835 8.24148 60.3057 8.3892 59.8625 8.3892ZM65.3635 10.4091L68.2527 15.5057L71.1675 10.4091H73.9544L69.872 16.9545L73.9885 23.5H71.2016L68.2527 18.608L65.3124 23.5H62.5169L66.5908 16.9545L62.568 10.4091H65.3635ZM80.727 23.5V6.04545H86.9486C88.3065 6.04545 89.4315 6.29261 90.3236 6.78693C91.2156 7.28125 91.8832 7.95739 92.3264 8.81534C92.7696 9.66761 92.9912 10.6278 92.9912 11.696C92.9912 12.7699 92.7668 13.7358 92.3179 14.5938C91.8747 15.446 91.2043 16.1222 90.3065 16.6222C89.4145 17.1165 88.2923 17.3636 86.9401 17.3636H82.6616V15.1307H86.7014C87.5594 15.1307 88.2554 14.983 88.7895 14.6875C89.3236 14.3864 89.7156 13.9773 89.9656 13.4602C90.2156 12.9432 90.3406 12.3551 90.3406 11.696C90.3406 11.0369 90.2156 10.4517 89.9656 9.94034C89.7156 9.42898 89.3207 9.02841 88.781 8.73864C88.2469 8.44886 87.5423 8.30398 86.6673 8.30398H83.3605V23.5H80.727ZM100.024 23.7642C98.7969 23.7642 97.7259 23.483 96.8111 22.9205C95.8963 22.358 95.1861 21.571 94.6804 20.5597C94.1747 19.5483 93.9219 18.3665 93.9219 17.0142C93.9219 15.6562 94.1747 14.4687 94.6804 13.4517C95.1861 12.4347 95.8963 11.6449 96.8111 11.0824C97.7259 10.5199 98.7969 10.2386 100.024 10.2386C101.251 10.2386 102.322 10.5199 103.237 11.0824C104.152 11.6449 104.862 12.4347 105.368 13.4517C105.874 14.4687 106.126 15.6562 106.126 17.0142C106.126 18.3665 105.874 19.5483 105.368 20.5597C104.862 21.571 104.152 22.358 103.237 22.9205C102.322 23.483 101.251 23.7642 100.024 23.7642ZM100.033 21.625C100.828 21.625 101.487 21.4148 102.01 20.9943C102.533 20.5739 102.919 20.0142 103.169 19.3153C103.425 18.6165 103.553 17.8466 103.553 17.0057C103.553 16.1705 103.425 15.4034 103.169 14.7045C102.919 14 102.533 13.4347 102.01 13.0085C101.487 12.5824 100.828 12.3693 100.033 12.3693C99.2315 12.3693 98.5668 12.5824 98.0384 13.0085C97.5156 13.4347 97.1264 14 96.8707 14.7045C96.6207 15.4034 96.4957 16.1705 96.4957 17.0057C96.4957 17.8466 96.6207 18.6165 96.8707 19.3153C97.1264 20.0142 97.5156 20.5739 98.0384 20.9943C98.5668 21.4148 99.2315 21.625 100.033 21.625ZM117.581 13.6051L115.271 14.0142C115.174 13.7187 115.021 13.4375 114.811 13.1705C114.606 12.9034 114.328 12.6847 113.975 12.5142C113.623 12.3437 113.183 12.2585 112.654 12.2585C111.933 12.2585 111.331 12.4205 110.848 12.7443C110.365 13.0625 110.123 13.4744 110.123 13.9801C110.123 14.4176 110.285 14.7699 110.609 15.0369C110.933 15.304 111.456 15.5227 112.177 15.6932L114.257 16.1705C115.461 16.4489 116.359 16.8778 116.95 17.4574C117.541 18.0369 117.836 18.7898 117.836 19.7159C117.836 20.5 117.609 21.1989 117.154 21.8125C116.706 22.4205 116.078 22.8977 115.271 23.2443C114.47 23.5909 113.541 23.7642 112.484 23.7642C111.018 23.7642 109.822 23.4517 108.896 22.8267C107.97 22.196 107.402 21.3011 107.191 20.142L109.654 19.767C109.808 20.4091 110.123 20.8949 110.6 21.2244C111.078 21.5483 111.7 21.7102 112.467 21.7102C113.302 21.7102 113.97 21.5369 114.47 21.1903C114.97 20.8381 115.22 20.4091 115.22 19.9034C115.22 19.4943 115.066 19.1506 114.76 18.8722C114.458 18.5937 113.995 18.3835 113.37 18.2415L111.154 17.7557C109.933 17.4773 109.029 17.0341 108.444 16.4261C107.865 15.8182 107.575 15.0483 107.575 14.1165C107.575 13.3437 107.791 12.6676 108.223 12.0881C108.654 11.5085 109.251 11.0568 110.012 10.733C110.774 10.4034 111.646 10.2386 112.629 10.2386C114.044 10.2386 115.157 10.5455 115.97 11.1591C116.782 11.767 117.319 12.5824 117.581 13.6051ZM125.549 10.4091V12.4545H118.398V10.4091H125.549ZM120.316 7.27273H122.864V19.6562C122.864 20.1506 122.938 20.5227 123.086 20.7727C123.234 21.017 123.424 21.1847 123.657 21.2756C123.895 21.3608 124.154 21.4034 124.432 21.4034C124.637 21.4034 124.816 21.3892 124.969 21.3608C125.123 21.3324 125.242 21.3097 125.327 21.2926L125.787 23.3977C125.64 23.4545 125.43 23.5114 125.157 23.5682C124.884 23.6307 124.543 23.6648 124.134 23.6705C123.464 23.6818 122.839 23.5625 122.259 23.3125C121.68 23.0625 121.211 22.6761 120.853 22.1534C120.495 21.6307 120.316 20.9744 120.316 20.1847V7.27273ZM135.46 18.071V10.4091H138.017V23.5H135.512V21.233H135.375C135.074 21.9318 134.591 22.5142 133.926 22.9801C133.267 23.4403 132.446 23.6705 131.463 23.6705C130.622 23.6705 129.878 23.4858 129.23 23.1165C128.588 22.7415 128.083 22.1875 127.713 21.4545C127.35 20.7216 127.168 19.8153 127.168 18.7358V10.4091H129.716V18.429C129.716 19.321 129.963 20.0312 130.458 20.5597C130.952 21.0881 131.594 21.3523 132.384 21.3523C132.861 21.3523 133.335 21.233 133.807 20.9943C134.284 20.7557 134.679 20.3949 134.992 19.9119C135.31 19.429 135.466 18.8153 135.46 18.071ZM140.241 23.5V10.4091H142.704V12.4886H142.841C143.079 11.7841 143.5 11.2301 144.102 10.8267C144.71 10.4176 145.397 10.2131 146.164 10.2131C146.324 10.2131 146.511 10.2187 146.727 10.2301C146.949 10.2415 147.122 10.2557 147.247 10.2727V12.7102C147.145 12.6818 146.963 12.6506 146.701 12.6165C146.44 12.5767 146.179 12.5568 145.917 12.5568C145.315 12.5568 144.778 12.6847 144.307 12.9403C143.841 13.1903 143.471 13.5398 143.199 13.9886C142.926 14.4318 142.789 14.9375 142.789 15.5057V23.5H140.241ZM153.425 23.7642C152.136 23.7642 151.025 23.4886 150.093 22.9375C149.167 22.3807 148.451 21.5994 147.945 20.5938C147.445 19.5824 147.195 18.3977 147.195 17.0398C147.195 15.6989 147.445 14.517 147.945 13.4943C148.451 12.4716 149.156 11.6733 150.059 11.0994C150.968 10.5256 152.031 10.2386 153.246 10.2386C153.985 10.2386 154.701 10.3608 155.394 10.6051C156.087 10.8494 156.71 11.233 157.261 11.7557C157.812 12.2784 158.246 12.9574 158.565 13.7926C158.883 14.6222 159.042 15.6307 159.042 16.8182V17.7216H148.636V15.8125H156.545C156.545 15.142 156.408 14.5483 156.136 14.0312C155.863 13.5085 155.479 13.0966 154.985 12.7955C154.496 12.4943 153.923 12.3438 153.263 12.3438C152.548 12.3438 151.923 12.5199 151.388 12.8722C150.86 13.2187 150.451 13.6733 150.161 14.2358C149.877 14.7926 149.735 15.3977 149.735 16.0511V17.5426C149.735 18.4176 149.888 19.1619 150.195 19.7756C150.508 20.3892 150.942 20.858 151.499 21.1818C152.056 21.5 152.707 21.6591 153.451 21.6591C153.934 21.6591 154.374 21.5909 154.772 21.4545C155.17 21.3125 155.513 21.1023 155.803 20.8239C156.093 20.5455 156.315 20.2017 156.468 19.7926L158.88 20.2273C158.687 20.9375 158.34 21.5597 157.84 22.0938C157.346 22.6222 156.724 23.0341 155.974 23.3295C155.229 23.6193 154.38 23.7642 153.425 23.7642Z" fill="black"/>
</svg>
